<svg width="540" height="136" viewBox="0 0 540 136" fill="none" xmlns="http://www.w3.org/2000/svg">
<rect width="540" height="136" rx="20" fill="#00B4F0"/>
<path d="M66.4627 123.228C58.9991 123.334 51.5937 121.93 44.7114 119.105C38.4946 116.464 33.0385 112.367 28.825 107.177C24.6217 101.764 21.9257 95.3781 21 88.6429L42.3547 85.5564C43.8801 91.6399 46.9892 96.3243 51.6822 99.6095C56.3768 102.888 62.0205 104.615 67.7898 104.537C71.1154 104.544 74.42 104.022 77.5748 102.994C80.4994 102.108 83.1607 100.543 85.3312 98.4316C86.3344 97.459 87.1227 96.2956 87.6475 95.0132C88.1722 93.7309 88.4222 92.3569 88.3819 90.9764C88.3871 89.9258 88.2092 88.882 87.8556 87.8899C87.5464 86.8334 87.0079 85.8544 86.2769 85.0196C85.3595 84.0037 84.2646 83.1555 83.0432 82.5147C81.4 81.6142 79.6576 80.8989 77.8494 80.3825L49.7526 72.3084C47.6477 71.7269 45.1817 70.8944 42.3547 69.8109C39.4652 68.6571 36.7606 67.1029 34.3238 65.1961C31.5842 63.0261 29.3505 60.3089 27.7725 57.2265C26.0641 53.8965 25.2125 49.7042 25.2176 44.6495C25.2176 37.5372 27.048 31.6252 30.7088 26.9135C34.4932 22.1208 39.5887 18.4737 45.4054 16.3942C51.8957 14.0308 58.783 12.8826 65.7077 13.0095C72.5644 12.9792 79.3625 14.2449 85.7278 16.7371C91.4433 19.0242 96.5051 22.6341 100.478 27.2564C104.607 32.1372 107.544 37.8739 109.065 44.0307L86.948 47.7061C86.2562 44.4886 84.7275 41.4998 82.5093 39.0283C80.3715 36.6878 77.7199 34.8502 74.753 33.653C71.7972 32.4301 68.6338 31.7576 65.4255 31.6699C62.3296 31.5545 59.2387 32.0046 56.3116 32.997C53.7026 33.8089 51.3306 35.22 49.3942 37.1123C48.5397 37.9691 47.8666 38.9825 47.4138 40.0943C46.961 41.2061 46.7372 42.3943 46.7554 43.5909C46.7172 44.6294 46.8903 45.665 47.2648 46.6376C47.6392 47.6103 48.2075 48.5005 48.9366 49.2568C50.5159 50.7542 52.3854 51.9278 54.4354 52.7086C56.6385 53.6033 58.9012 54.3506 61.2079 54.9452L80.0078 59.9775C82.822 60.723 85.9261 61.6922 89.3428 62.9148C92.8259 64.1311 96.1191 65.8147 99.1279 67.9173C102.339 70.081 104.992 72.9446 106.877 76.2821C108.936 79.7612 109.965 84.1772 109.965 89.53C110.084 94.7296 108.812 99.8693 106.274 104.441C103.896 108.646 100.552 112.255 96.5043 114.982C92.2316 117.803 87.4991 119.893 82.5093 121.163C77.2789 122.549 71.882 123.243 66.4627 123.228Z" fill="white"/>
<path d="M128.648 121.017V15.0703H205.228V33.7531H149.118V56.4171H194.665V75.1074H149.118V102.326H205.228V121.017H128.648Z" fill="white"/>
<path d="M223.75 121.017V15.0703H244.525L291.643 85.7013V15.0703H312.418V121.017H291.643L244.525 50.3858V121.017H223.75Z" fill="white"/>
<path d="M461.199 121.017V77.9031L424.164 15.0703H448.104L471.587 54.9409L495.069 15.0703H519.002L481.974 77.9031V121.017H461.199Z" fill="white"/>
<path d="M375.183 15.3614C359.083 14.9439 339.719 15.1079 339.719 15.1079L340.291 36.9891C340.291 36.9891 366.481 35.498 375.183 37.2574C383.885 39.0169 401.274 48.0452 401.274 68.1743C401.274 88.3035 383.877 97.7269 375.183 99.6429C366.488 101.559 340.489 100.209 340.489 100.209V121.084C340.489 121.084 359.083 121.233 375.183 120.853C391.283 120.473 423.483 109.372 423.483 68.1743C423.483 26.9767 391.283 15.7864 375.183 15.3614Z" fill="white"/>
<path fill-rule="evenodd" clip-rule="evenodd" d="M376.235 68.0398L339.733 15.0703L330.703 37.6672L351.776 68.0398L330.703 99.1207L340.488 121.054L376.235 68.0398Z" fill="black"/>
</svg>
