<svg width="117" height="26" viewBox="0 0 117 26" fill="none" xmlns="http://www.w3.org/2000/svg">
<path d="M10.6808 25.9987C8.9273 26.0237 7.18751 25.6926 5.57063 25.0263C4.11008 24.4033 2.82827 23.4371 1.83836 22.2128C0.850866 20.9361 0.217478 19.43 0 17.8414L5.01697 17.1134C5.37532 18.5483 6.10577 19.6531 7.20831 20.428C8.31124 21.2014 9.63714 21.6086 10.9925 21.5903C11.7738 21.5918 12.5502 21.4689 13.2914 21.2263C13.9785 21.0173 14.6037 20.6481 15.1136 20.1502C15.3493 19.9208 15.5345 19.6464 15.6578 19.3439C15.7811 19.0415 15.8398 18.7174 15.8303 18.3918C15.8316 18.144 15.7898 17.8978 15.7067 17.6638C15.6341 17.4146 15.5075 17.1837 15.3358 16.9868C15.1203 16.7472 14.863 16.5471 14.5761 16.396C14.19 16.1836 13.7807 16.0149 13.3559 15.8931L6.75499 13.9887C6.26046 13.8515 5.68112 13.6552 5.01697 13.3996C4.33812 13.1275 3.7027 12.7609 3.13023 12.3112C2.48659 11.7993 1.96183 11.1584 1.5911 10.4314C1.18974 9.64599 0.989657 8.65717 0.990851 7.46496C0.990851 5.78743 1.42088 4.39301 2.28093 3.28169C3.17002 2.15127 4.36712 1.29104 5.73368 0.800558C7.25846 0.243121 8.87653 -0.0276997 10.5034 0.00223655C12.1143 -0.00491695 13.7114 0.293631 15.2068 0.881445C16.5496 1.4209 17.7388 2.27235 18.6721 3.36257C19.6423 4.51376 20.3323 5.86685 20.6896 7.31901L15.4935 8.18591C15.3309 7.42701 14.9718 6.72206 14.4507 6.13911C13.9484 5.58708 13.3255 5.15366 12.6284 4.8713C11.934 4.58286 11.1908 4.42423 10.4371 4.40356C9.70974 4.37634 8.9836 4.48249 8.29592 4.71655C7.68297 4.90805 7.1257 5.24089 6.67078 5.6872C6.47002 5.88931 6.3119 6.12833 6.20552 6.39056C6.09913 6.65278 6.04656 6.93305 6.05082 7.21527C6.04186 7.46022 6.08253 7.70449 6.1705 7.93389C6.25847 8.1633 6.39197 8.37328 6.56327 8.55166C6.93429 8.90484 7.37353 9.18165 7.85514 9.36581C8.37271 9.57684 8.9043 9.75309 9.44624 9.89334L13.863 11.0803C14.5241 11.2561 15.2534 11.4847 16.0561 11.7731C16.8744 12.0599 17.6481 12.457 18.3549 12.953C19.1093 13.4633 19.7325 14.1387 20.1754 14.9259C20.6592 15.7465 20.9011 16.7881 20.9011 18.0506C20.9289 19.277 20.63 20.4893 20.0338 21.5675C19.4751 22.5594 18.6894 23.4105 17.7386 24.0539C16.7348 24.7193 15.6229 25.2122 14.4507 25.5116C13.2219 25.8386 11.9539 26.0024 10.6808 25.9987V25.9987Z" fill="#34CCFF"/>
<path d="M25.291 25.4772V0.488281H43.2822V4.89488H30.1001V10.2405H40.8006V14.6488H30.1001V21.0688H43.2822V25.4772H25.291Z" fill="#34CCFF"/>
<path d="M47.6328 25.4772V0.488281H52.5136L63.5832 17.1475V0.488281H68.464V25.4772H63.5832L52.5136 8.81791V25.4772H47.6328Z" fill="#34CCFF"/>
<path d="M103.42 25.4772V15.3082L94.7188 0.488281H100.343L105.86 9.8923L111.377 0.488281H116.999L108.3 15.3082V25.4772H103.42Z" fill="#34CCFF"/>
<path d="M83.2067 0.559463C79.4243 0.460992 74.875 0.499677 74.875 0.499677L75.0094 5.66063C75.0094 5.66063 81.1623 5.30895 83.2067 5.72394C85.2512 6.13892 89.3364 8.26837 89.3364 13.0161C89.3364 17.7638 85.2494 19.9865 83.2067 20.4384C81.1641 20.8903 75.056 20.572 75.056 20.572V25.4956C75.056 25.4956 79.4243 25.5308 83.2067 25.4411C86.9892 25.3514 94.5541 22.7331 94.5541 13.0161C94.5541 3.29908 86.9892 0.659693 83.2067 0.559463Z" fill="#34CCFF"/>
<path fill-rule="evenodd" clip-rule="evenodd" d="M83.4567 12.9818L74.8812 0.488281L72.7598 5.81805L77.7104 12.9818L72.7598 20.3127L75.0586 25.486L83.4567 12.9818H83.4585H83.4567Z" fill="#006789"/>
</svg>
